HIERARCHY
ROOT reference
{
  OFFSET 0 0 0
  CHANNELS 6 Xposition Yposition Zposition Zrotation Xrotation Yrotation
  JOINT Hips
  {
    OFFSET 19.8941 91.4584 12.6699
    CHANNELS 3 Zrotation Xrotation Yrotation
    JOINT RightUpLeg
    {
      OFFSET -9.21136 -1.54315 -0.00338228
      CHANNELS 3 Zrotation Xrotation Yrotation
      JOINT RightLeg
      {
        OFFSET 0.100199 -41.8913 0.117885
        CHANNELS 3 Zrotation Xrotation Yrotation
        JOINT RightFoot
        {
          OFFSET -0.0312538 -39.9042 0.200326
          CHANNELS 3 Zrotation Xrotation Yrotation
          End Site
          {
            OFFSET 0 -7.69 17.5
          }
        }
      }
    }
    JOINT LeftUpLeg
    {
      OFFSET 9.2904 -1.6473 0.00344049
      CHANNELS 3 Zrotation Xrotation Yrotation
      JOINT LeftLeg
      {
        OFFSET 0.15381 -41.8817 -0.0541105
        CHANNELS 3 Zrotation Xrotation Yrotation
        JOINT LeftFoot
        {
          OFFSET 0.872932 -43.9846 -0.139608
          CHANNELS 3 Zrotation Xrotation Yrotation
          End Site
          {
            OFFSET 0 -7.69 17.5
          }
        }
      }
    }
    JOINT Spine
    {
      OFFSET 0.0768477 14.3139 0.027738
      CHANNELS 3 Zrotation Xrotation Yrotation
      JOINT Spine1
      {
        OFFSET -0.0133682 9.71866 0.00713354
        CHANNELS 3 Zrotation Xrotation Yrotation
        JOINT Spine2
        {
          OFFSET -0.0175262 10.1212 -0.00524987
          CHANNELS 3 Zrotation Xrotation Yrotation
          JOINT Spine3
          {
            OFFSET -0.00348171 9.71796 0.0104149
            CHANNELS 3 Zrotation Xrotation Yrotation
            JOINT Neck
            {
              OFFSET -0.0845439 10.3822 0.044921
              CHANNELS 3 Zrotation Xrotation Yrotation
              JOINT Head
              {
                OFFSET -0.0310878 9.44025 0.0694291
                CHANNELS 3 Zrotation Xrotation Yrotation
                End Site
                {
                  OFFSET 0 15.95 0
                }
              }
            }
            JOINT RightShoulder
            {
              OFFSET -3.20882 6.90619 -0.0326675
              CHANNELS 3 Zrotation Xrotation Yrotation
              JOINT RightArm
              {
                OFFSET -12.8514 -0.0142271 -0.0483735
                CHANNELS 3 Zrotation Xrotation Yrotation
                JOINT RightForeArm
                {
                  OFFSET -26.4475 -0.0994884 -0.035967
                  CHANNELS 3 Zrotation Xrotation Yrotation
                  JOINT RightHand
                  {
                    OFFSET -25.9226 -0.102631 -0.136889
                    CHANNELS 3 Zrotation Xrotation Yrotation
                    JOINT RightHandThumb1
                    {
                      OFFSET -2.48905 0.190105 3.12053
                      CHANNELS 3 Zrotation Xrotation Yrotation
                      JOINT RightHandThumb2
                      {
                        OFFSET -3.68274 0 0
                        CHANNELS 3 Zrotation Xrotation Yrotation
                        JOINT RightHandThumb3
                        {
                          OFFSET -2.55832 0 0
                          CHANNELS 3 Zrotation Xrotation Yrotation
                          End Site
                          {
                            OFFSET -2.194 0 0
                          }
                        }
                      }
                    }
                    JOINT RightInHandIndex
                    {
                      OFFSET -3.22368 0.508421 1.97842
                      CHANNELS 3 Zrotation Xrotation Yrotation
                      JOINT RightHandIndex1
                      {
                        OFFSET -5.21684 -0.091368 0.999158
                        CHANNELS 3 Zrotation Xrotation Yrotation
                        JOINT RightHandIndex2
                        {
                          OFFSET -3.61937 0 0
                          CHANNELS 3 Zrotation Xrotation Yrotation
                          JOINT RightHandIndex3
                          {
                            OFFSET -2.0521 0 0
                            CHANNELS 3 Zrotation Xrotation Yrotation
                            End Site
                            {
                              OFFSET -1.805 0 0
                            }
                          }
                        }
                      }
                    }
                    JOINT RightInHandMiddle
                    {
                      OFFSET -3.38211 0.517263 0.756737
                      CHANNELS 3 Zrotation Xrotation Yrotation
                      JOINT RightHandMiddle1
                      {
                        OFFSET -5.17411 -0.084 0.313895
                        CHANNELS 3 Zrotation Xrotation Yrotation
                        JOINT RightHandMiddle2
                        {
                          OFFSET -3.94947 0 0
                          CHANNELS 3 Zrotation Xrotation Yrotation
                          JOINT RightHandMiddle3
                          {
                            OFFSET -2.47579 0 0
                            CHANNELS 3 Zrotation Xrotation Yrotation
                            End Site
                            {
                              OFFSET -1.975 0 0
                            }
                          }
                        }
                      }
                    }
                    JOINT RightInHandRing
                    {
                      OFFSET -3.36516 0.537895 -0.128947
                      CHANNELS 3 Zrotation Xrotation Yrotation
                      JOINT RightHandRing1
                      {
                        OFFSET -4.63474 -0.022105 -0.478947
                        CHANNELS 3 Zrotation Xrotation Yrotation
                        JOINT RightHandRing2
                        {
                          OFFSET -3.44238 0 0
                          CHANNELS 3 Zrotation Xrotation Yrotation
                          JOINT RightHandRing3
                          {
                            OFFSET -2.3881 0 0
                            CHANNELS 3 Zrotation Xrotation Yrotation
                            End Site
                            {
                              OFFSET -1.857 0 0
                            }
                          }
                        }
                      }
                    }
                    JOINT RightInHandPinky
                    {
                      OFFSET -3.16105 0.469368 -1.20179
                      CHANNELS 3 Zrotation Xrotation Yrotation
                      JOINT RightHandPinky1
                      {
                        OFFSET -4.14105 -0.022105 -1.09053
                        CHANNELS 3 Zrotation Xrotation Yrotation
                        JOINT RightHandPinky2
                        {
                          OFFSET -2.75653 0 0
                          CHANNELS 3 Zrotation Xrotation Yrotation
                          JOINT RightHandPinky3
                          {
                            OFFSET -1.74189 0 0
                            CHANNELS 3 Zrotation Xrotation Yrotation
                            End Site
                            {
                              OFFSET -1.645 0 0
                            }
                          }
                        }
                      }
                    }
                  }
                }
              }
            }
            JOINT LeftShoulder
            {
              OFFSET 3.19355 6.9059 0.0487761
              CHANNELS 3 Zrotation Xrotation Yrotation
              JOINT LeftArm
              {
                OFFSET 12.7349 -0.00433124 -0.0458964
                CHANNELS 3 Zrotation Xrotation Yrotation
                JOINT LeftForeArm
                {
                  OFFSET 26.4064 -0.194468 0.00909971
                  CHANNELS 3 Zrotation Xrotation Yrotation
                  JOINT LeftHand
                  {
                    OFFSET 25.9027 0.0515579 -0.250056
                    CHANNELS 3 Zrotation Xrotation Yrotation
                    JOINT LeftHandThumb1
                    {
                      OFFSET 2.48905 0.190105 3.12053
                      CHANNELS 3 Zrotation Xrotation Yrotation
                      JOINT LeftHandThumb2
                      {
                        OFFSET 3.68274 0 0
                        CHANNELS 3 Zrotation Xrotation Yrotation
                        JOINT LeftHandThumb3
                        {
                          OFFSET 2.55832 0 0
                          CHANNELS 3 Zrotation Xrotation Yrotation
                          End Site
                          {
                            OFFSET 2.194 0 0
                          }
                        }
                      }
                    }
                    JOINT LeftInHandIndex
                    {
                      OFFSET 3.22368 0.508421 1.97842
                      CHANNELS 3 Zrotation Xrotation Yrotation
                      JOINT LeftHandIndex1
                      {
                        OFFSET 5.21684 -0.091368 0.999158
                        CHANNELS 3 Zrotation Xrotation Yrotation
                        JOINT LeftHandIndex2
                        {
                          OFFSET 3.61937 0 0
                          CHANNELS 3 Zrotation Xrotation Yrotation
                          JOINT LeftHandIndex3
                          {
                            OFFSET 2.0521 0 0
                            CHANNELS 3 Zrotation Xrotation Yrotation
                            End Site
                            {
                              OFFSET 1.805 0 0
                            }
                          }
                        }
                      }
                    }
                    JOINT LeftInHandMiddle
                    {
                      OFFSET 3.38211 0.517263 0.756737
                      CHANNELS 3 Zrotation Xrotation Yrotation
                      JOINT LeftHandMiddle1
                      {
                        OFFSET 5.17411 -0.084 0.313895
                        CHANNELS 3 Zrotation Xrotation Yrotation
                        JOINT LeftHandMiddle2
                        {
                          OFFSET 3.94947 0 0
                          CHANNELS 3 Zrotation Xrotation Yrotation
                          JOINT LeftHandMiddle3
                          {
                            OFFSET 2.47579 0 0
                            CHANNELS 3 Zrotation Xrotation Yrotation
                            End Site
                            {
                              OFFSET 1.975 0 0
                            }
                          }
                        }
                      }
                    }
                    JOINT LeftInHandRing
                    {
                      OFFSET 3.36516 0.537895 -0.128947
                      CHANNELS 3 Zrotation Xrotation Yrotation
                      JOINT LeftHandRing1
                      {
                        OFFSET 4.63474 -0.022105 -0.478947
                        CHANNELS 3 Zrotation Xrotation Yrotation
                        JOINT LeftHandRing2
                        {
                          OFFSET 3.44238 0 0
                          CHANNELS 3 Zrotation Xrotation Yrotation
                          JOINT LeftHandRing3
                          {
                            OFFSET 2.3881 0 0
                            CHANNELS 3 Zrotation Xrotation Yrotation
                            End Site
                            {
                              OFFSET 1.857 0 0
                            }
                          }
                        }
                      }
                    }
                    JOINT LeftInHandPinky
                    {
                      OFFSET 3.16105 0.469368 -1.20179
                      CHANNELS 3 Zrotation Xrotation Yrotation
                      JOINT LeftHandPinky1
                      {
                        OFFSET 4.14105 -0.022105 -1.09053
                        CHANNELS 3 Zrotation Xrotation Yrotation
                        JOINT LeftHandPinky2
                        {
                          OFFSET 2.75653 0 0
                          CHANNELS 3 Zrotation Xrotation Yrotation
                          JOINT LeftHandPinky3
                          {
                            OFFSET 1.74189 0 0
                            CHANNELS 3 Zrotation Xrotation Yrotation
                            End Site
                            {
                              OFFSET 1.645 0 0
                            }
                          }
                        }
                      }
                    }
                  }
                }
              }
            }
          }
        }
      }
    }
  }
}
MOTION
Frames: 2
Frame Time: 0.00416667
1.500000000000000000e+02 0.000000000000000000e+00 0.000000000000000000e+00 0.000000000000000000e+00 0.000000000000000000e+00 -0.000000000000000000e+00 8.951037413090294492e-02 -6.741875380790018912e-02 -6.955241819558956318e-02 -3.019854575300579339e-02 -8.426953777379971033e-02 -1.840388366283476212e-02 7.242178546834950048e-02 -6.691826021398790403e-02 -3.776345735515723723e-02 1.639248432346673140e-02 6.976648902871246394e-02 7.216421111498796948e-02 3.870809112854638190e-02 -3.414812701841331982e-02 -3.072181388915506961e-02 3.518297275952106395e-02 -6.533172054498331827e-02 1.090953781077319829e-01 -3.175879276699068721e-02 -2.879969915719357912e-02 5.727116835310349513e-02 1.397978387329162075e-01 -1.360329145492979341e+00 -4.519668514784830338e-02 2.625005512586551376e-02 3.804561145548727707e-01 6.867363922989959402e-02 -1.248593140280071165e-02 1.173960761841607248e+00 3.350196215739761896e-01 -4.738573143484048691e-03 4.678504718052789967e-03 -9.651055408937937730e-03 -5.199683116664211360e-03 -1.366943544122599212e-02 -1.086877784681354771e-02 -6.380390653758566399e-02 -1.905322111997742873e-01 -1.845775686660086623e-01 7.238998753374410455e-01 -2.852503905924645977e-01 1.753161915334755738e+00 -2.441941719913633069e+00 7.066182997341714511e-01 3.569533029436382510e-01 2.504829919312526698e+01 4.027004955229545047e+00 2.646023712488057811e+01 3.972168534506448911e-01 6.144483071668791929e+00 -4.510846998803977215e+00 0.000000000000000000e+00 0.000000000000000000e+00 0.000000000000000000e+00 2.243893873085268878e-15 2.845737105335648580e-15 0.000000000000000000e+00 1.817667432427109528e-15 -1.312304934131976256e-15 0.000000000000000000e+00 -5.904998389185964770e-15 -2.818332204411328506e-15 1.667608496709905137e-16 0.000000000000000000e+00 0.000000000000000000e+00 0.000000000000000000e+00 0.000000000000000000e+00 2.658209768788371871e-15 -4.700965845731911758e-15 0.000000000000000000e+00 2.510525794331898475e-15 1.349645120274898858e-14 -5.904998389185964770e-15 -2.818332204411328506e-15 1.667608496709905137e-16 0.000000000000000000e+00 -1.022353447914258775e-14 -1.918588051604803246e-15 0.000000000000000000e+00 5.596311887514394808e-15 3.446707006891060615e-15 0.000000000000000000e+00 2.680728960273635601e-15 -9.995396397670107727e-15 -5.904998389185964770e-15 -2.818332204411328506e-15 1.667608496709905137e-16 0.000000000000000000e+00 0.000000000000000000e+00 0.000000000000000000e+00 0.000000000000000000e+00 1.377293152845920325e-14 -1.559814980225813296e-14 0.000000000000000000e+00 1.634479271624015146e-15 -8.422804383339944301e-15 -5.904998389185964770e-15 -2.818332204411328506e-15 1.667608496709905137e-16 0.000000000000000000e+00 0.000000000000000000e+00 0.000000000000000000e+00 0.000000000000000000e+00 -1.383857385858550185e-14 -1.495288382653094179e-14 0.000000000000000000e+00 1.778620236850686276e-14 1.340620056249095206e-14 -1.881909879978813094e-01 -1.534508069326823154e-02 6.075709049802793249e-01 -4.488958957355002055e-01 9.302191136216340916e-02 8.961820866801273322e-01 -8.539278678075434836e-01 -3.720459810315693616e+00 -7.387005385247348288e-01 1.711001718104589120e+00 -1.155475298840497322e-01 -7.424231243246240952e-01 0.000000000000000000e+00 0.000000000000000000e+00 0.000000000000000000e+00 -1.878552326826943266e-14 1.888145850650215132e-14 0.000000000000000000e+00 -2.801786094951418977e-14 3.521769407100521371e-15 0.000000000000000000e+00 -7.220976094774092284e-15 -7.479415287904126559e-16 -9.985694659686013547e-16 0.000000000000000000e+00 0.000000000000000000e+00 0.000000000000000000e+00 0.000000000000000000e+00 -3.067028145742503890e-15 2.446969658403472991e-14 0.000000000000000000e+00 -1.981993842719609198e-15 -1.310491915795119424e-14 -7.220976094774092284e-15 -7.479415287904126559e-16 -9.985694659686013547e-16 0.000000000000000000e+00 2.248736824833467629e-15 -8.710050469212990073e-15 0.000000000000000000e+00 8.803883978458322687e-16 4.372238618299206104e-15 0.000000000000000000e+00 -4.482612199474726790e-15 3.337061518763089172e-14 -7.220976094774092284e-15 -7.479415287904126559e-16 -9.985694659686013547e-16 0.000000000000000000e+00 0.000000000000000000e+00 0.000000000000000000e+00 0.000000000000000000e+00 -1.084628380334528232e-14 1.695736679741338688e-14 0.000000000000000000e+00 2.614310950084026901e-16 -5.859664861866549975e-15 -7.220976094774092284e-15 -7.479415287904126559e-16 -9.985694659686013547e-16 0.000000000000000000e+00 0.000000000000000000e+00 0.000000000000000000e+00 0.000000000000000000e+00 -1.051738812872824326e-14 2.546902519481780518e-14 0.000000000000000000e+00 -5.198761287140271793e-15 -8.170398617908356462e-15
1.500000000000000000e+02 0.000000000000000000e+00 0.000000000000000000e+00 0.000000000000000000e+00 0.000000000000000000e+00 -0.000000000000000000e+00 7.505968589708805760e-02 -5.787586348291724747e-02 -5.619048422856337544e-02 -3.429232103218501915e-02 -6.854970718619216030e-02 -2.600001641939521033e-02 5.913089109446523911e-02 -5.971351520922324463e-02 -2.932926266014083266e-02 1.684540830789579141e-02 5.981498812880872706e-02 6.435491608559923415e-02 2.660894323704959472e-02 -3.167129826973751755e-02 -2.797448700366240992e-02 3.140444990160531219e-02 -5.254593280889992973e-02 9.614067613064745943e-02 -2.673907343084811275e-02 -2.205398478404002952e-02 4.227505057649273701e-02 1.296221001024305264e-01 -1.290127780547891456e+00 -6.391744313429865987e-02 2.356024299925954177e-02 3.542734278916482848e-01 5.766966736724023213e-02 -1.322642052927040963e-02 1.097830259295067279e+00 3.025333226357975747e-01 -4.235232267465478817e-03 3.425992793354456015e-03 -9.929126918513633132e-03 -4.619418058649373687e-03 -9.610813825768857108e-03 -1.013128067607445455e-02 -6.128136978529535178e-02 -1.508530156285803059e-01 -1.728686510538781917e-01 6.056727197207617541e-01 -2.151039991392262873e-01 1.525546192111421284e+00 -1.990743460330995696e+00 4.947261700101925341e-01 2.074837287894234494e-01 2.391230342982183643e+01 4.194000500967406175e+00 2.545509326372306802e+01 2.366511725701928026e-01 5.919595795638089797e+00 -4.219160483590608024e+00 0.000000000000000000e+00 0.000000000000000000e+00 0.000000000000000000e+00 5.621378571578441357e-15 -3.116499250902735139e-15 0.000000000000000000e+00 8.015617222877788626e-15 -3.774227759545396229e-15 0.000000000000000000e+00 -8.246931016411736696e-15 -2.357518746958785731e-15 -9.675732122905150243e-15 0.000000000000000000e+00 0.000000000000000000e+00 0.000000000000000000e+00 0.000000000000000000e+00 7.497822168133015938e-15 -1.306331759303008403e-15 0.000000000000000000e+00 -4.770664328369576077e-15 2.155382066479522387e-14 -8.246931016411736696e-15 -2.357518746958785731e-15 -9.675732122905150243e-15 0.000000000000000000e+00 -1.291451095198979505e-14 -7.724744178989792818e-15 0.000000000000000000e+00 -4.134717358107876044e-15 -5.739639506688427009e-15 0.000000000000000000e+00 8.851484445427554921e-16 2.229844782664973582e-15 -8.246931016411736696e-15 -2.357518746958785731e-15 -9.675732122905150243e-15 0.000000000000000000e+00 0.000000000000000000e+00 0.000000000000000000e+00 0.000000000000000000e+00 5.592668386635575798e-15 7.889297032292890849e-15 0.000000000000000000e+00 -1.197200042788008187e-15 1.149102550541517207e-14 -8.246931016411736696e-15 -2.357518746958785731e-15 -9.675732122905150243e-15 0.000000000000000000e+00 0.000000000000000000e+00 0.000000000000000000e+00 0.000000000000000000e+00 -7.856130649160440585e-15 -1.299396688203437660e-14 0.000000000000000000e+00 1.209448077455031370e-14 3.557672666944732639e-14 -1.546111262833190225e-01 2.223012462931055373e-03 5.782170139182648549e-01 -2.426164675953481342e-01 6.406535553392604665e-02 5.677012293477332605e-01 -6.906349756755232328e-01 -2.948898518925982870e+00 -5.734433452204458215e-01 1.353222469400810146e+00 -8.749183053323612846e-02 -6.044726047805805136e-01 0.000000000000000000e+00 0.000000000000000000e+00 0.000000000000000000e+00 -6.151919075709268935e-15 8.938216205666902430e-15 0.000000000000000000e+00 -3.430967641074989203e-14 1.208329509183334847e-15 0.000000000000000000e+00 -5.665893823404791071e-15 -1.529739679391139939e-15 -1.168992811407346173e-15 0.000000000000000000e+00 0.000000000000000000e+00 0.000000000000000000e+00 0.000000000000000000e+00 -3.286147838651760545e-15 1.193209038799775124e-14 0.000000000000000000e+00 -4.672849193818726095e-15 -1.442340647449337741e-14 -5.665893823404791071e-15 -1.529739679391139939e-15 -1.168992811407346173e-15 0.000000000000000000e+00 -1.984967541444131014e-15 -1.535791047817514486e-14 0.000000000000000000e+00 3.618769982215422209e-15 7.386272415883033911e-15 0.000000000000000000e+00 -5.230351399771253238e-15 2.033681452432788735e-14 -5.665893823404791071e-15 -1.529739679391139939e-15 -1.168992811407346173e-15 0.000000000000000000e+00 0.000000000000000000e+00 0.000000000000000000e+00 0.000000000000000000e+00 -2.252648442800962974e-15 2.987411034392596010e-15 0.000000000000000000e+00 -2.605802940498766107e-15 1.574707966145430250e-15 -5.665893823404791071e-15 -1.529739679391139939e-15 -1.168992811407346173e-15 0.000000000000000000e+00 0.000000000000000000e+00 0.000000000000000000e+00 0.000000000000000000e+00 -1.050595454717788978e-14 7.558785170364858412e-15 0.000000000000000000e+00 2.386838007587075958e-15 -6.402703951285984252e-15
